<svg id="Layer_1" data-name="Layer 1" xmlns="http://www.w3.org/2000/svg" viewBox="0 0 182.86 167.07"><defs><style>.cls-1{fill:#25cae5;}.cls-2{fill:#235ee7;}</style></defs><title>AntragPlus</title><path class="cls-1" d="M99,117.82V74.08H55V51.94a39,39,0,0,0-38.1,39V120a39,39,0,0,0,39,39H83a39,39,0,0,0,39-39v-2.2Z"/><polygon class="cls-2" points="83.03 51.89 99.02 51.89 99.02 8.03 19.14 8.03 19.14 51.89 55.04 51.89 55.97 51.89 83.03 51.89"/><polygon class="cls-2" points="122.06 90.92 122.06 117.82 122.06 120.02 122.06 154.81 165.92 154.81 165.92 74.08 122.06 74.08 122.06 90.92"/><path class="cls-2" d="M165.92,51.89V45.45A37.42,37.42,0,0,0,128.5,8h-6.44V51.89Z"/></svg>