<svg id="Layer_1" data-name="Layer 1" xmlns="http://www.w3.org/2000/svg" viewBox="0 0 841.85 167.07"><defs><style>.cls-1{fill:#25cae5;}.cls-2{fill:#235ee7;}.cls-3{fill:#293568;}</style></defs><title>AntragPlus</title><path class="cls-1" d="M98.13,115.86V74.62H56.67V53.74A36.78,36.78,0,0,0,20.74,90.5v27.43a36.8,36.8,0,0,0,36.8,36.8H83.06a36.8,36.8,0,0,0,36.8-36.8v-2.07Z"/><polygon class="cls-2" points="83.06 53.7 98.13 53.7 98.13 12.35 22.81 12.35 22.81 53.7 56.67 53.7 57.54 53.7 83.06 53.7"/><polygon class="cls-2" points="119.86 90.5 119.86 115.86 119.86 117.93 119.86 150.74 161.21 150.74 161.21 74.62 119.86 74.62 119.86 90.5"/><path class="cls-2" d="M161.21,53.7V47.63a35.29,35.29,0,0,0-35.28-35.29h-6.07V53.7Z"/><path class="cls-3" d="M243.92,54.41c14.72,0,20.52,8.25,20.52,19.4v27.65c0,8.48-2.23,11.82-12.16,11.82H224.74c-13.94,0-19.74-6.8-19.74-18,0-10.71,5.36-17,19.85-17h28V73.92c0-4.57-2.56-8.14-9-8.14H208.57V54.41Zm8.92,44.38v-11H225.08c-6.25,0-8.48,2.56-8.48,6.91s2.34,7.14,8.25,7.14h24.76C252,101.8,252.84,100.9,252.84,98.79Z"/><path class="cls-3" d="M311.48,54.41c20,0,29.66,9.47,29.66,25.75v33.12H329.21V80.16c0-9.25-5.35-14.38-17.73-14.38H292.19c-1,0-1.45.56-1.45,1.67v45.83H278.92V63.55c0-6.91,2.34-9.14,8.25-9.14Z"/><path class="cls-3" d="M357.63,54.41V40.47h11.94V54.41h16.28V65.78H369.57V93.66c0,6.58,2.34,8.81,7.91,8.81h8.14v10.81H375c-12.15,0-17.4-4.9-17.4-20.29V65.78h-8V54.41Z"/><path class="cls-3" d="M435.13,54.41V65.78H414.39c-5.24,0-7.59,2.45-7.59,7.58v39.92H395V71.58c0-11.82,4.35-17.17,15.95-17.17Z"/><path class="cls-3" d="M482.17,54.41c14.72,0,20.52,8.25,20.52,19.4v27.65c0,8.48-2.23,11.82-12.15,11.82H463c-13.94,0-19.74-6.8-19.74-18,0-10.71,5.35-17,19.85-17h28V73.92c0-4.57-2.56-8.14-9-8.14H446.83V54.41Zm8.92,44.38v-11H463.33c-6.24,0-8.47,2.56-8.47,6.91s2.34,7.14,8.25,7.14h24.75C490.2,101.8,491.09,100.9,491.09,98.79Z"/><path class="cls-3" d="M556.2,54.41c14,0,21.64,8.25,21.64,25.2V113.5c0,16.73-5.8,23.31-22.3,23.31h-35V125.44H554.2c8.81,0,11.71-3.46,11.71-11.94v-2.67h-26c-15.72,0-25.53-9.26-25.53-28.32s9.81-28.1,25.53-28.1ZM541,100.12h24.87V79.49c0-9.58-3.68-13.71-13.16-13.71H541c-10.15,0-14.72,5.13-14.72,17.17S530.89,100.12,541,100.12Z"/><path class="cls-2" d="M629.79,54.41c15.61,0,25.42,9.59,25.42,29.43s-9.81,29.44-25.42,29.44H603.7v23.64H591.88V79.61c0-17,7.47-25.2,21.63-25.2ZM603.7,101.8h24.86c10.26,0,14.72-5.24,14.72-18s-4.46-18.06-14.72-18.06H617c-9.59,0-13.27,4.24-13.27,14.38Z"/><path class="cls-2" d="M679,28.87v84.41H667.13V28.87Z"/><path class="cls-2" d="M705.26,54.41V89.64c0,6.92,5.13,12.16,14.5,12.16h9.59c9.37,0,14.38-5.24,14.38-12.16V54.41h11.6V90.09c0,13.6-8.7,23.19-25.54,23.19H718.87c-16.84,0-25.54-9.59-25.54-23.19V54.41Z"/><path class="cls-2" d="M818.77,54.41V65.78H786.21c-5.47,0-7.7,2.23-7.7,6.69,0,4.13,1.79,6.36,8.37,6.36H800.7c16.28,0,20.41,7.47,20.41,16.61,0,10.48-5.47,17.84-19.29,17.84H767.59V101.8h34.23c5.46,0,7.69-1.9,7.69-6.47s-2.45-6.58-8.36-6.58H787.21c-16.28,0-20.29-8.14-20.29-17.17,0-10.6,5.46-17.17,19.18-17.17Z"/><path class="cls-2" d="M216.06,127.59v9.3H214.2v-6l-2.49,6H210.3l-2.51-6v6h-1.87v-9.3h2.13l2.95,6.92,3-6.92Z"/><path class="cls-2" d="M220.57,129.1v2.33h3.13v1.48h-3.13v2.46h3.53v1.52h-5.4v-9.31h5.4v1.52Z"/><path class="cls-2" d="M234.31,127.59v9.3h-1.87v-3.95h-4v3.95h-1.87v-9.3h1.87v3.83h4v-3.83Z"/><path class="cls-2" d="M241.74,136.89l-2.05-3.62h-.88v3.62H237v-9.3h3.49a4.06,4.06,0,0,1,1.83.38,2.76,2.76,0,0,1,1.15,1,2.82,2.82,0,0,1,.38,1.44,2.73,2.73,0,0,1-.54,1.66,2.65,2.65,0,0,1-1.58,1l2.22,3.77Zm-2.93-5h1.56a1.51,1.51,0,0,0,1.13-.37,1.35,1.35,0,0,0,.38-1,1.31,1.31,0,0,0-.38-1,1.59,1.59,0,0,0-1.13-.35h-1.56Z"/><path class="cls-2" d="M256,127.59v1.51h-3.88v2.39h3V133h-3v3.93h-1.86v-9.3Z"/><path class="cls-2" d="M260,136.37a4.6,4.6,0,0,1-1.73-1.69,5,5,0,0,1,0-4.91,4.7,4.7,0,0,1,1.73-1.7,5,5,0,0,1,4.81,0,4.67,4.67,0,0,1,1.72,1.7,5.1,5.1,0,0,1,0,4.91,4.53,4.53,0,0,1-1.73,1.69,5,5,0,0,1-4.8,0Zm3.88-1.43a2.55,2.55,0,0,0,1-1.08,3.57,3.57,0,0,0,.36-1.64,3.5,3.5,0,0,0-.36-1.63,2.55,2.55,0,0,0-1-1.08,2.85,2.85,0,0,0-1.48-.37,2.9,2.9,0,0,0-1.48.37,2.58,2.58,0,0,0-1,1.08,3.5,3.5,0,0,0-.36,1.63,3.57,3.57,0,0,0,.36,1.64,2.58,2.58,0,0,0,1,1.08,2.81,2.81,0,0,0,1.48.38A2.77,2.77,0,0,0,263.91,134.94Zm-3.34-8.49a.92.92,0,0,1,0-1.26.84.84,0,0,1,.62-.26.9.9,0,0,1,.64.26.89.89,0,0,1,0,1.26.89.89,0,0,1-.64.25A.83.83,0,0,1,260.57,126.45Zm2.46,0a.89.89,0,0,1,1.26-1.26.89.89,0,0,1,0,1.26.92.92,0,0,1-1.26,0Z"/><path class="cls-2" d="M274.17,136.89l-2.05-3.62h-.88v3.62h-1.86v-9.3h3.49a4.06,4.06,0,0,1,1.83.38,2.67,2.67,0,0,1,1.14,1,2.84,2.84,0,0,1-.15,3.1,2.65,2.65,0,0,1-1.58,1l2.22,3.77Zm-2.93-5h1.56a1.51,1.51,0,0,0,1.13-.37,1.35,1.35,0,0,0,.38-1,1.31,1.31,0,0,0-.38-1,1.59,1.59,0,0,0-1.13-.35h-1.56Z"/><path class="cls-2" d="M284.54,128.17a4,4,0,0,1,1.72,1.63,4.83,4.83,0,0,1,.61,2.46,4.7,4.7,0,0,1-.61,2.44,4,4,0,0,1-1.72,1.62,5.53,5.53,0,0,1-2.57.57h-3.26v-9.3H282A5.41,5.41,0,0,1,284.54,128.17Zm-.37,6.34a3,3,0,0,0,.79-2.25,3.15,3.15,0,0,0-.79-2.28,3.08,3.08,0,0,0-2.27-.82h-1.32v6.15h1.32A3.11,3.11,0,0,0,284.17,134.51Z"/><path class="cls-2" d="M290.94,129.1v2.33h3.13v1.48h-3.13v2.46h3.53v1.52h-5.4v-9.31h5.4v1.52Z"/><path class="cls-2" d="M301.75,136.89l-2.05-3.62h-.88v3.62H297v-9.3h3.49a4.13,4.13,0,0,1,1.84.38,2.73,2.73,0,0,1,1.14,1,2.82,2.82,0,0,1,.38,1.44,2.78,2.78,0,0,1-.53,1.66,2.71,2.71,0,0,1-1.59,1l2.22,3.77Zm-2.93-5h1.56a1.51,1.51,0,0,0,1.13-.37,1.35,1.35,0,0,0,.38-1,1.31,1.31,0,0,0-.38-1,1.59,1.59,0,0,0-1.13-.35h-1.56Z"/><path class="cls-2" d="M308.13,127.59v5.76a2,2,0,0,0,.5,1.45,2.22,2.22,0,0,0,2.78,0,2,2,0,0,0,.5-1.45v-5.76h1.88v5.75a3.69,3.69,0,0,1-.52,2,3.19,3.19,0,0,1-1.37,1.23A4.28,4.28,0,0,1,310,137a4.2,4.2,0,0,1-1.89-.42,3.12,3.12,0,0,1-1.34-1.23,3.78,3.78,0,0,1-.49-2v-5.75Z"/><path class="cls-2" d="M324.34,136.89h-1.86l-4.23-6.38v6.38h-1.87v-9.31h1.87l4.23,6.4v-6.4h1.86Z"/><path class="cls-2" d="M333.46,130.39a2.22,2.22,0,0,0-.88-.89,2.62,2.62,0,0,0-1.31-.31,2.81,2.81,0,0,0-1.46.38,2.5,2.5,0,0,0-1,1.06,3.43,3.43,0,0,0-.36,1.6,3.53,3.53,0,0,0,.36,1.63,2.67,2.67,0,0,0,1,1.06,3,3,0,0,0,1.52.37,2.64,2.64,0,0,0,1.75-.56,2.73,2.73,0,0,0,.89-1.58h-3.2v-1.43h5v1.63a4.29,4.29,0,0,1-.8,1.8,4.53,4.53,0,0,1-1.58,1.32,4.58,4.58,0,0,1-2.16.5,5,5,0,0,1-2.44-.6,4.55,4.55,0,0,1-1.71-1.69,4.84,4.84,0,0,1-.61-2.45,4.93,4.93,0,0,1,.61-2.46,4.48,4.48,0,0,1,1.71-1.69,4.94,4.94,0,0,1,2.42-.61,4.83,4.83,0,0,1,2.73.77,3.87,3.87,0,0,1,1.6,2.15Z"/><path class="cls-2" d="M338,136.68a1,1,0,0,1-.33-.78,1,1,0,0,1,.33-.78,1.21,1.21,0,0,1,1.64,0,1,1,0,0,1,.32.78,1.06,1.06,0,0,1-.32.78,1.24,1.24,0,0,1-1.64,0Z"/><path class="cls-2" d="M358.68,127.59l-2.6,9.3h-2.2l-1.74-6.62-1.83,6.62-2.18,0-2.51-9.32h2l1.64,7.23,1.89-7.23h2.08l1.78,7.19,1.66-7.19Z"/><path class="cls-2" d="M362.55,129.1v2.33h3.14v1.48h-3.14v2.46h3.54v1.52h-5.4v-9.31h5.4v1.52Z"/><path class="cls-2" d="M376.53,136.89h-1.86l-4.23-6.38v6.38h-1.86v-9.31h1.86l4.23,6.4v-6.4h1.86Z"/><path class="cls-2" d="M381,127.59v9.3h-1.87v-9.3Z"/><path class="cls-2" d="M390.15,130.39a2.16,2.16,0,0,0-.88-.89,2.6,2.6,0,0,0-1.3-.31,2.87,2.87,0,0,0-1.47.38,2.56,2.56,0,0,0-1,1.06,3.76,3.76,0,0,0,0,3.23,2.54,2.54,0,0,0,1,1.06,3,3,0,0,0,1.52.37,2.6,2.6,0,0,0,1.74-.56,2.8,2.8,0,0,0,.9-1.58h-3.2v-1.43h5v1.63a4.29,4.29,0,0,1-.8,1.8,4.35,4.35,0,0,1-1.58,1.32,4.53,4.53,0,0,1-2.16.5,5,5,0,0,1-2.44-.6,4.45,4.45,0,0,1-1.7-1.69,4.85,4.85,0,0,1-.62-2.45,4.94,4.94,0,0,1,.62-2.46,4.38,4.38,0,0,1,1.7-1.69,5,5,0,0,1,2.43-.61,4.88,4.88,0,0,1,2.73.77,4,4,0,0,1,1.6,2.15Z"/><path class="cls-2" d="M396.57,129.1v2.33h3.13v1.48h-3.13v2.46h3.53v1.52h-5.4v-9.31h5.4v1.52Z"/><path class="cls-2" d="M407.39,136.89l-2.05-3.62h-.88v3.62H402.6v-9.3h3.49a4.13,4.13,0,0,1,1.84.38,2.65,2.65,0,0,1,1.52,2.47,2.73,2.73,0,0,1-.54,1.66,2.65,2.65,0,0,1-1.58,1l2.22,3.77Zm-2.93-5H406a1.51,1.51,0,0,0,1.13-.37,1.35,1.35,0,0,0,.38-1,1.31,1.31,0,0,0-.38-1,1.59,1.59,0,0,0-1.13-.35h-1.56Z"/><path class="cls-2" d="M424.26,127.59l-3.41,9.3h-2.26l-3.41-9.3h2l2.56,7.4,2.55-7.4Z"/><path class="cls-2" d="M428,129.1v2.33h3.14v1.48H428v2.46h3.54v1.52h-5.4v-9.31h5.4v1.52Z"/><path class="cls-2" d="M438.86,136.89l-2.05-3.62h-.88v3.62h-1.87v-9.3h3.5a4.06,4.06,0,0,1,1.83.38,2.67,2.67,0,0,1,1.14,1,2.84,2.84,0,0,1-.15,3.1,2.65,2.65,0,0,1-1.58,1l2.22,3.77Zm-2.93-5h1.56a1.52,1.52,0,0,0,1.13-.37,1.35,1.35,0,0,0,.38-1,1.31,1.31,0,0,0-.38-1,1.61,1.61,0,0,0-1.13-.35h-1.56Z"/><path class="cls-2" d="M455.84,127.59l-2.6,9.3h-2.19l-1.75-6.62-1.83,6.62-2.18,0-2.51-9.32h2l1.64,7.23,1.89-7.23h2.08l1.79,7.19,1.65-7.19Z"/><path class="cls-2" d="M463.55,135.12h-3.7l-.62,1.77h-2l3.34-9.31h2.17l3.35,9.31h-2Zm-.5-1.49-1.35-3.89-1.34,3.89Z"/><path class="cls-2" d="M470.06,135.41h3.06v1.48h-4.93v-9.3h1.87Z"/><path class="cls-2" d="M481.44,127.59v1.51H479v7.79H477.1V129.1h-2.49v-1.51Z"/><path class="cls-2" d="M485.43,127.59v5.76a2,2,0,0,0,.5,1.45,1.86,1.86,0,0,0,1.38.49,1.9,1.9,0,0,0,1.4-.49,2,2,0,0,0,.49-1.45v-5.76h1.88v5.75a3.69,3.69,0,0,1-.51,2,3.19,3.19,0,0,1-1.37,1.23,4.31,4.31,0,0,1-1.91.42,4.17,4.17,0,0,1-1.89-.42,3.12,3.12,0,0,1-1.34-1.23,3.78,3.78,0,0,1-.5-2v-5.75Z"/><path class="cls-2" d="M501.63,136.89h-1.86l-4.22-6.38v6.38h-1.87v-9.31h1.87l4.22,6.4v-6.4h1.86Z"/><path class="cls-2" d="M510.75,130.39a2.22,2.22,0,0,0-.88-.89,2.62,2.62,0,0,0-1.31-.31,2.81,2.81,0,0,0-1.46.38,2.56,2.56,0,0,0-1,1.06,3.76,3.76,0,0,0,0,3.23,2.58,2.58,0,0,0,1,1.06,3,3,0,0,0,1.52.37,2.61,2.61,0,0,0,1.75-.56,2.73,2.73,0,0,0,.89-1.58h-3.2v-1.43h5v1.63a4.29,4.29,0,0,1-.8,1.8,4.44,4.44,0,0,1-1.58,1.32,4.53,4.53,0,0,1-2.16.5,5,5,0,0,1-2.44-.6,4.45,4.45,0,0,1-1.7-1.69,4.85,4.85,0,0,1-.62-2.45,4.94,4.94,0,0,1,.62-2.46,4.38,4.38,0,0,1,1.7-1.69,4.94,4.94,0,0,1,2.42-.61,4.89,4.89,0,0,1,2.74.77,3.9,3.9,0,0,1,1.59,2.15Z"/></svg>