<svg id="Layer_1" data-name="Layer 1" xmlns="http://www.w3.org/2000/svg" viewBox="0 0 841.85 167.07"><defs><style>.cls-1{fill:#131f44;}.cls-2{fill:#25cae5;}.cls-3{fill:#235ee7;}.cls-4{fill:#fff;}</style></defs><title>AntragPlus</title><rect class="cls-1" width="841.85" height="167.07"/><path class="cls-2" d="M96,116.07V74.56H54.3v-21a37,37,0,0,0-36.16,37v27.62a37,37,0,0,0,37,37H80.86a37,37,0,0,0,37-37v-2.09Z"/><polygon class="cls-3" points="80.86 53.5 96.03 53.5 96.03 11.88 20.22 11.88 20.22 53.5 54.3 53.5 55.17 53.5 80.86 53.5"/><polygon class="cls-3" points="117.9 90.54 117.9 116.07 117.9 118.16 117.9 151.18 159.52 151.18 159.52 74.56 117.9 74.56 117.9 90.54"/><path class="cls-3" d="M159.52,53.5V47.39A35.51,35.51,0,0,0,124,11.88H117.9V53.5Z"/><path class="cls-4" d="M242.77,54.22c14.81,0,20.65,8.3,20.65,19.52v27.84c0,8.53-2.25,11.9-12.23,11.9H223.46c-14,0-19.86-6.85-19.86-18.07,0-10.78,5.39-17.06,20-17.06h28.17V73.86c0-4.6-2.58-8.2-9.09-8.2H207.19V54.22Zm9,44.66V87.77H223.8c-6.28,0-8.53,2.59-8.53,7s2.36,7.19,8.31,7.19h24.91C250.85,101.92,251.75,101,251.75,98.88Z"/><path class="cls-4" d="M310.77,54.22c20.09,0,29.85,9.54,29.85,25.92v33.34h-12V80.14c0-9.31-5.39-14.48-17.85-14.48H291.35c-1,0-1.45.57-1.45,1.69v46.13H278V63.42c0-7,2.36-9.2,8.3-9.2Z"/><path class="cls-4" d="M357.22,54.22v-14h12v14h16.39V65.66H369.23V93.72c0,6.62,2.36,8.87,8,8.87h8.19v10.89H374.73c-12.23,0-17.51-4.94-17.51-20.43V65.66h-8.08V54.22Z"/><path class="cls-4" d="M435.22,54.22V65.66H414.34c-5.27,0-7.63,2.47-7.63,7.64v40.18H394.82v-42c0-11.9,4.37-17.28,16-17.28Z"/><path class="cls-4" d="M482.57,54.22c14.82,0,20.65,8.3,20.65,19.52v27.84c0,8.53-2.24,11.9-12.23,11.9H463.27c-14,0-19.87-6.85-19.87-18.07,0-10.78,5.39-17.06,20-17.06h28.17V73.86c0-4.6-2.58-8.2-9.09-8.2H447V54.22Zm9,44.66V87.77H463.61c-6.29,0-8.53,2.59-8.53,7s2.35,7.19,8.3,7.19H488.3C490.65,101.92,491.55,101,491.55,98.88Z"/><path class="cls-4" d="M557.09,54.22c14.14,0,21.77,8.3,21.77,25.36V113.7c0,16.83-5.84,23.46-22.45,23.46H521.17V125.71h33.89c8.87,0,11.79-3.48,11.79-12V111H540.7c-15.83,0-25.7-9.32-25.7-28.51s9.87-28.28,25.7-28.28Zm-15.27,46h25V79.47c0-9.65-3.7-13.81-13.24-13.81H541.82C531.61,65.66,527,70.83,527,83S531.61,100.23,541.82,100.23Z"/><path class="cls-3" d="M631.15,54.22c15.71,0,25.59,9.65,25.59,29.63s-9.88,29.63-25.59,29.63H604.89v23.79H593V79.58c0-17.06,7.52-25.36,21.77-25.36Zm-26.26,47.7h25c10.33,0,14.82-5.28,14.82-18.07s-4.49-18.19-14.82-18.19H618.24c-9.65,0-13.35,4.27-13.35,14.48Z"/><path class="cls-3" d="M680.63,28.52v85h-11.9v-85Z"/><path class="cls-3" d="M707.11,54.22V89.68c0,7,5.17,12.24,14.59,12.24h9.66c9.42,0,14.47-5.28,14.47-12.24V54.22h11.68V90.13c0,13.69-8.76,23.35-25.7,23.35h-11c-16.95,0-25.7-9.66-25.7-23.35V54.22Z"/><path class="cls-3" d="M821.36,54.22V65.66H788.58c-5.49,0-7.74,2.25-7.74,6.74,0,4.15,1.8,6.4,8.42,6.4h13.91c16.39,0,20.54,7.51,20.54,16.72,0,10.55-5.5,18-19.41,18H769.84V101.92H804.3c5.5,0,7.74-1.91,7.74-6.51s-2.47-6.63-8.42-6.63h-14c-16.38,0-20.42-8.19-20.42-17.28,0-10.66,5.5-17.28,19.3-17.28Z"/><path class="cls-3" d="M214.73,127.88v9.36h-1.87v-6.09l-2.51,6.09h-1.42l-2.52-6.09v6.09h-1.88v-9.36h2.13l3,7,3-7Z"/><path class="cls-3" d="M219.27,129.4v2.34h3.15v1.49h-3.15v2.48h3.55v1.53h-5.43v-9.37h5.43v1.53Z"/><path class="cls-3" d="M233.1,127.88v9.36h-1.88v-4h-4v4h-1.88v-9.36h1.88v3.85h4v-3.85Z"/><path class="cls-3" d="M240.58,137.24l-2.06-3.64h-.89v3.64h-1.88v-9.36h3.52a4.1,4.1,0,0,1,1.84.38,2.6,2.6,0,0,1,1.15,1,2.74,2.74,0,0,1,.39,1.45,2.72,2.72,0,0,1-2.14,2.7l2.24,3.79Zm-3-5.05h1.57a1.59,1.59,0,0,0,1.14-.37,1.39,1.39,0,0,0,.38-1,1.32,1.32,0,0,0-.38-1,1.64,1.64,0,0,0-1.14-.35h-1.57Z"/><path class="cls-3" d="M254.93,127.88v1.52H251v2.4h3v1.48h-3v4h-1.88v-9.36Z"/><path class="cls-3" d="M259,136.72a4.54,4.54,0,0,1-1.74-1.71,5,5,0,0,1,0-4.94,4.68,4.68,0,0,1,1.74-1.71,5.11,5.11,0,0,1,4.84,0,4.73,4.73,0,0,1,1.73,1.71,5.16,5.16,0,0,1,0,4.94,4.61,4.61,0,0,1-1.74,1.71,5,5,0,0,1-4.83,0Zm3.9-1.44a2.63,2.63,0,0,0,1-1.1,3.94,3.94,0,0,0,0-3.29,2.58,2.58,0,0,0-1-1.08,3.19,3.19,0,0,0-3,0,2.58,2.58,0,0,0-1,1.08,3.84,3.84,0,0,0,0,3.29,2.63,2.63,0,0,0,1,1.1,3.11,3.11,0,0,0,3,0Zm-3.37-8.55a.89.89,0,0,1-.25-.63.93.93,0,0,1,.25-.64.88.88,0,0,1,.63-.26.9.9,0,0,1,.91.9.83.83,0,0,1-.27.63.93.93,0,0,1-1.27,0Zm2.49,0a.86.86,0,0,1-.26-.63.9.9,0,0,1,.26-.64.84.84,0,0,1,.63-.26.89.89,0,0,1,.9.9.86.86,0,0,1-.26.63.89.89,0,0,1-.64.25A.84.84,0,0,1,262,126.73Z"/><path class="cls-3" d="M273.22,137.24l-2.06-3.64h-.89v3.64h-1.88v-9.36h3.52a4.18,4.18,0,0,1,1.85.38,2.63,2.63,0,0,1,1.14,1,2.74,2.74,0,0,1,.39,1.45,2.72,2.72,0,0,1-2.14,2.7l2.24,3.79Zm-3-5.05h1.57a1.59,1.59,0,0,0,1.14-.37,1.39,1.39,0,0,0,.38-1,1.32,1.32,0,0,0-.38-1,1.64,1.64,0,0,0-1.14-.35h-1.57Z"/><path class="cls-3" d="M283.66,128.46a4.09,4.09,0,0,1,1.73,1.64,4.88,4.88,0,0,1,.61,2.48,4.8,4.8,0,0,1-.61,2.46,4.19,4.19,0,0,1-1.73,1.63,5.66,5.66,0,0,1-2.6.57h-3.27v-9.36h3.27A5.54,5.54,0,0,1,283.66,128.46Zm-.38,6.38a3.09,3.09,0,0,0,.8-2.26,3.16,3.16,0,0,0-.8-2.29,3.05,3.05,0,0,0-2.28-.83h-1.33v6.19H281A3.08,3.08,0,0,0,283.28,134.84Z"/><path class="cls-3" d="M290.09,129.4v2.34h3.16v1.49h-3.16v2.48h3.56v1.53h-5.44v-9.37h5.44v1.53Z"/><path class="cls-3" d="M301,137.24l-2.06-3.64H298v3.64h-1.88v-9.36h3.52a4.18,4.18,0,0,1,1.85.38,2.63,2.63,0,0,1,1.14,1,2.74,2.74,0,0,1,.39,1.45,2.72,2.72,0,0,1-2.14,2.7l2.24,3.79Zm-3-5.05h1.57a1.59,1.59,0,0,0,1.14-.37,1.39,1.39,0,0,0,.38-1,1.32,1.32,0,0,0-.38-1,1.64,1.64,0,0,0-1.14-.35H298Z"/><path class="cls-3" d="M307.4,127.88v5.79a2,2,0,0,0,.5,1.46,2.21,2.21,0,0,0,2.8,0,2,2,0,0,0,.5-1.46v-5.79h1.89v5.78a3.76,3.76,0,0,1-.51,2,3.33,3.33,0,0,1-1.39,1.24,4.33,4.33,0,0,1-1.92.42,4.24,4.24,0,0,1-1.9-.42,3.17,3.17,0,0,1-1.35-1.24,3.85,3.85,0,0,1-.5-2v-5.78Z"/><path class="cls-3" d="M323.71,137.24h-1.87l-4.26-6.42v6.42h-1.87v-9.37h1.87l4.26,6.43v-6.43h1.87Z"/><path class="cls-3" d="M332.89,130.7a2.2,2.2,0,0,0-.89-.9,2.62,2.62,0,0,0-1.31-.31,2.85,2.85,0,0,0-1.47.38,2.55,2.55,0,0,0-1,1.07,3.44,3.44,0,0,0-.36,1.61,3.38,3.38,0,0,0,.37,1.63,2.54,2.54,0,0,0,1,1.08,3,3,0,0,0,1.53.37,2.66,2.66,0,0,0,1.76-.57,2.74,2.74,0,0,0,.9-1.59h-3.22V132h5.07v1.63a4.52,4.52,0,0,1-.81,1.82,4.6,4.6,0,0,1-1.59,1.33,4.72,4.72,0,0,1-2.17.5,4.93,4.93,0,0,1-2.46-.61,4.41,4.41,0,0,1-1.71-1.69,5.25,5.25,0,0,1,0-5,4.5,4.5,0,0,1,1.71-1.7,5.24,5.24,0,0,1,5.19.16,3.93,3.93,0,0,1,1.61,2.17Z"/><path class="cls-3" d="M337.47,137a1.1,1.1,0,0,1,0-1.57,1.16,1.16,0,0,1,.83-.31,1.12,1.12,0,0,1,.82.31,1.1,1.1,0,0,1,0,1.57,1.12,1.12,0,0,1-.82.32A1.16,1.16,0,0,1,337.47,137Z"/><path class="cls-3" d="M358.28,127.88l-2.62,9.36h-2.21l-1.76-6.66-1.84,6.66-2.2,0-2.52-9.38h2l1.65,7.27,1.91-7.27h2.09l1.8,7.23,1.66-7.23Z"/><path class="cls-3" d="M362.17,129.4v2.34h3.16v1.49h-3.16v2.48h3.56v1.53H360.3v-9.37h5.43v1.53Z"/><path class="cls-3" d="M376.25,137.24h-1.88l-4.25-6.42v6.42h-1.88v-9.37h1.88l4.25,6.43v-6.43h1.88Z"/><path class="cls-3" d="M380.78,127.88v9.36H378.9v-9.36Z"/><path class="cls-3" d="M390,130.7a2.27,2.27,0,0,0-.89-.9,2.68,2.68,0,0,0-1.32-.31,2.87,2.87,0,0,0-1.47.38,2.61,2.61,0,0,0-1,1.07,3.44,3.44,0,0,0-.36,1.61,3.38,3.38,0,0,0,.37,1.63,2.66,2.66,0,0,0,1,1.08,3.05,3.05,0,0,0,1.54.37,2.65,2.65,0,0,0,1.75-.57,2.69,2.69,0,0,0,.9-1.59h-3.22V132h5.07v1.63a4.26,4.26,0,0,1-.81,1.82,4.48,4.48,0,0,1-1.58,1.33,4.76,4.76,0,0,1-2.18.5,4.89,4.89,0,0,1-2.45-.61A4.43,4.43,0,0,1,383.6,135a5.25,5.25,0,0,1,0-5,4.53,4.53,0,0,1,1.72-1.7,4.87,4.87,0,0,1,2.43-.61,5,5,0,0,1,2.76.77,4,4,0,0,1,1.6,2.17Z"/><path class="cls-3" d="M396.41,129.4v2.34h3.16v1.49h-3.16v2.48H400v1.53h-5.43v-9.37H400v1.53Z"/><path class="cls-3" d="M407.31,137.24l-2.07-3.64h-.88v3.64h-1.88v-9.36H406a4.12,4.12,0,0,1,1.85.38,2.66,2.66,0,0,1,1.15,1,2.73,2.73,0,0,1,.38,1.45,2.84,2.84,0,0,1-.53,1.67,2.76,2.76,0,0,1-1.6,1l2.24,3.79Zm-2.95-5.05h1.57a1.61,1.61,0,0,0,1.14-.37,1.38,1.38,0,0,0,.37-1,1.31,1.31,0,0,0-.37-1,1.65,1.65,0,0,0-1.14-.35h-1.57Z"/><path class="cls-3" d="M424.28,127.88l-3.43,9.36h-2.28l-3.43-9.36h2l2.58,7.44,2.56-7.44Z"/><path class="cls-3" d="M428.09,129.4v2.34h3.16v1.49h-3.16v2.48h3.56v1.53h-5.44v-9.37h5.44v1.53Z"/><path class="cls-3" d="M439,137.24l-2.06-3.64H436v3.64h-1.88v-9.36h3.52a4.18,4.18,0,0,1,1.85.38,2.63,2.63,0,0,1,1.14,1,2.74,2.74,0,0,1,.39,1.45,2.72,2.72,0,0,1-2.14,2.7l2.24,3.79Zm-3-5.05h1.57a1.59,1.59,0,0,0,1.14-.37,1.39,1.39,0,0,0,.38-1,1.32,1.32,0,0,0-.38-1,1.64,1.64,0,0,0-1.14-.35H436Z"/><path class="cls-3" d="M456.07,127.88l-2.62,9.36h-2.21l-1.76-6.66-1.83,6.66-2.2,0-2.52-9.38h2l1.65,7.27,1.9-7.27h2.09l1.8,7.23,1.67-7.23Z"/><path class="cls-3" d="M463.83,135.46H460.1l-.61,1.78h-2l3.36-9.37h2.19l3.36,9.37h-2Zm-.51-1.5L462,130,460.61,134Z"/><path class="cls-3" d="M470.38,135.75h3.09v1.49h-5v-9.36h1.88Z"/><path class="cls-3" d="M481.83,127.88v1.52h-2.49v7.84h-1.88V129.4H475v-1.52Z"/><path class="cls-3" d="M485.85,127.88v5.79a2,2,0,0,0,.5,1.46,2.21,2.21,0,0,0,2.8,0,2,2,0,0,0,.5-1.46v-5.79h1.89v5.78a3.76,3.76,0,0,1-.51,2,3.33,3.33,0,0,1-1.39,1.24,4.33,4.33,0,0,1-1.92.42,4.24,4.24,0,0,1-1.9-.42,3.23,3.23,0,0,1-1.35-1.24,3.85,3.85,0,0,1-.49-2v-5.78Z"/><path class="cls-3" d="M502.16,137.24h-1.87L496,130.82v6.42h-1.87v-9.37H496l4.26,6.43v-6.43h1.87Z"/><path class="cls-3" d="M511.34,130.7a2.2,2.2,0,0,0-.89-.9,2.62,2.62,0,0,0-1.31-.31,2.88,2.88,0,0,0-1.48.38,2.52,2.52,0,0,0-1,1.07,3.44,3.44,0,0,0-.37,1.61,3.5,3.5,0,0,0,.37,1.63,2.62,2.62,0,0,0,1,1.08,3,3,0,0,0,1.53.37,2.63,2.63,0,0,0,1.75-.57,2.69,2.69,0,0,0,.9-1.59h-3.22V132h5.07v1.63a4.37,4.37,0,0,1-.8,1.82,4.6,4.6,0,0,1-1.59,1.33,4.76,4.76,0,0,1-2.18.5,4.92,4.92,0,0,1-2.45-.61A4.43,4.43,0,0,1,505,135a5.25,5.25,0,0,1,0-5,4.53,4.53,0,0,1,1.72-1.7,5.24,5.24,0,0,1,5.19.16,4,4,0,0,1,1.61,2.17Z"/></svg>